<svg id="Capa_1" data-name="Capa 1" xmlns="http://www.w3.org/2000/svg" viewBox="0 0 1031.46 776.5"><defs><style>.cls-1{fill:#173885;}.cls-2{fill:#142585;}.cls-3{fill:#f59493;}.cls-4{fill:#385bd6;}.cls-5{fill:#c2d5ff;}.cls-6{fill:#c0cae3;}.cls-7{fill:#fff;}.cls-8{fill:#d67474;}.cls-9{fill:#4a74ff;}.cls-10{fill:#122175;}.cls-11{fill:#e6eeff;}.cls-12{fill:#183180;}.cls-13{fill:#99b2e8;}.cls-14{fill:#8ea3d4;}.cls-15{fill:#c9e4ff;}.cls-16,.cls-17,.cls-19,.cls-21,.cls-24,.cls-28{fill:none;stroke-linecap:round;stroke-linejoin:round;}.cls-16{stroke:#e38a78;stroke-width:1.89px;}.cls-17{stroke:#9eb9db;}.cls-17,.cls-24{stroke-width:2.28px;}.cls-18{fill:#d8e3ff;}.cls-19,.cls-28{stroke:#fff;}.cls-19{stroke-width:3.56px;}.cls-20{fill:#a3bef7;}.cls-21,.cls-24{stroke:#142585;}.cls-21{stroke-width:4.56px;}.cls-22{fill:#0f1b61;}.cls-23{fill:#fbfbff;}.cls-25{fill:#1adbcf;}.cls-26{fill:#f0f5ff;}.cls-27{opacity:0.28;}.cls-28{stroke-width:2.16px;}</style></defs><title>medical-5459630mod</title><path class="cls-1" d="M1750.27,1490.57,1459.08,1453c-10-1.37-17.77-10.48-16.86-20.51l28.94-330.6c0-57,52.4-65.4,62.43-64l202.32,29.39c74.51,3.65,68.13,79.52,67.22,89.55l-33,318.07A17.24,17.24,0,0,1,1750.27,1490.57Z" transform="translate(-817.01 -903.87)"/><path class="cls-2" d="M1552.72,1057.89s33.73-14.58,24.16-54.68C1567.53,962.88,1527.89,996.83,1552.72,1057.89Z" transform="translate(-817.01 -903.87)"/><path class="cls-3" d="M1478.9,1168.85l-68.12,143.77c-2.51,5.24-9.57,6.61-16.64,3.19l-4.33-2c-11.39-5.69-18.22-18.45-15.26-27.57l46.71-131.46s18.22-47.85,52.63-25.29C1491.43,1140.6,1478.9,1168.85,1478.9,1168.85Z" transform="translate(-817.01 -903.87)"/><path class="cls-4" d="M1520.6,1382.57,1434.93,1371c-20-.45-13.45-188-13.45-211.67h0c0-23.69,34.18-45.57,57.19-53.54l55.37-11.85,81.8,27.34c15.26,4.33,34,53.77,34,77.47l6.6-19.14C1656.39,1203,1540.65,1383,1520.6,1382.57Z" transform="translate(-817.01 -903.87)"/><polygon class="cls-5" points="690.15 688.1 0 555.49 355.67 422.66 1031.46 529.06 1031.01 552.98 690.15 688.1"/><path class="cls-6" d="M1473.89,1429.05l-171.34-23.92c-11.62-1.82-28-1.59-36.91.68l-83.39,22.1c-2.28.69-3.88,1.37-4.56,2.06l-39.19,10.48c-8.89,2.27-6.61,5.92,5,7.74l171.8,28.71c11.62,1.82,28,1.6,36.91-.68l114.83-31.67C1475.48,1442.5,1473.89,1429.05,1473.89,1429.05Z" transform="translate(-817.01 -903.87)"/><path class="cls-7" d="M1463.41,1424.72l-171.8-28.7c-11.62-1.83-28-1.6-36.91.68l-83.39,22.1a12.31,12.31,0,0,0-4.56,2l-39.19,10.48c-8.88,2.28-6.61,5.93,5,7.75l171.79,28.71c11.62,1.82,28,1.59,36.91-.69l127.37-34.63C1477.31,1430,1475,1426.55,1463.41,1424.72Z" transform="translate(-817.01 -903.87)"/><path class="cls-3" d="M1661.86,1198l-76.78,139.21c-3,5.24-10,6.15-16.86,2l-4.1-2.5c-10.94-6.38-17.09-19.37-13.45-28.48l58.1-136.26s3.42-46.71,50.81-13.9C1666.19,1162.7,1661.86,1198,1661.86,1198Z" transform="translate(-817.01 -903.87)"/><path class="cls-3" d="M1412.14,1311.94c-25.06,38.51-146.27,76.56-146.27,76.56l-33.5-10.94,148.79-109.14Z" transform="translate(-817.01 -903.87)"/><path class="cls-3" d="M1543.84,1131.71l-1.37-2.27c-12.3,1.36-56.73,3.19-58.33-10.26,23-8.88,14.13-37.59,5.93-81.11-1.6-13.44,7.29-25.75,19.59-27.11l4.1-.46c12.31-1.37,37.6,9.57,39.19,23,7.29,33.5,8.89,64.25,13.45,96.61C1568,1143.79,1556.14,1130.35,1543.84,1131.71Z" transform="translate(-817.01 -903.87)"/><path class="cls-8" d="M1498.27,1086.6l.91,13.9a74.48,74.48,0,0,0,36.46-35.32l6.83-9.57Z" transform="translate(-817.01 -903.87)"/><path class="cls-9" d="M1492.35,1095l-16.18,10.25s-8.66,28.71,5.69,41l36.23-16.64s-21.42-8.43-19.37-31C1499,1095.49,1495.54,1093.44,1492.35,1095Z" transform="translate(-817.01 -903.87)"/><path class="cls-9" d="M1572.32,1091.16l14.35,15s-19.59,37.13-41.92,49.21l-30.3-24.61s33.72-17.09,47.62-39.64C1564.12,1088,1569.81,1088.2,1572.32,1091.16Z" transform="translate(-817.01 -903.87)"/><path class="cls-2" d="M1479.59,930.3s-58.79,2.73-46.71,52c11.16,45.34,54,28.25,54,28.25Z" transform="translate(-817.01 -903.87)"/><path class="cls-3" d="M1453.16,1040.35,1452,982.7c-.92-32.12,21.87-39.64,51.26-40.33l2.51-3.19c29.16-.68,54.68,12.53,55.36,44.66l-10.7,59.93C1550.9,1069.51,1462,1133.31,1453.16,1040.35Z" transform="translate(-817.01 -903.87)"/><path class="cls-10" d="M1504,1021.66c0,3.19,2,5.7,4.1,5.47,2.28,0,3.87-2.73,3.87-5.69,0-3.19-2-5.7-4.1-5.47C1505.56,1016,1504,1018.47,1504,1021.66Z" transform="translate(-817.01 -903.87)"/><path class="cls-10" d="M1464.32,1021.21c0,3,1.37,5.47,2.73,5.47s2.51-2.51,2.28-5.47c0-3-1.36-5.47-2.73-5.47S1464.32,1018.25,1464.32,1021.21Z" transform="translate(-817.01 -903.87)"/><path class="cls-10" d="M1517.41,1002.07c-4.33-.68-11.62,0-16,.45-4.79.46-5-4.55-.46-5,8-1.14,11.17-.45,16.86,1.6C1519,999.33,1519.23,1002.3,1517.41,1002.07Z" transform="translate(-817.01 -903.87)"/><path class="cls-10" d="M1459.54,1003c3-.68,8-.23,10.93,0,3.19.46,3-4.56,0-5-5.47-.91-7.52-.23-11.39,2C1458.17,1000.47,1458.4,1003.44,1459.54,1003Z" transform="translate(-817.01 -903.87)"/><path class="cls-3" d="M1568.22,1021c-2.51,9.34-9.12,15-15,12.76-5.92-2.51-8.66-12.08-6.15-21.42s9.11-15,15-12.76C1567.76,1001.84,1570.72,1011.41,1568.22,1021Z" transform="translate(-817.01 -903.87)"/><path class="cls-8" d="M1488.47,1047.18c-4.56,0-6.83-1.82-8-3.19a7.15,7.15,0,0,1-.91-5.92c.68-1.82,2.27-11.17,3-14.58.23-.69.91-1.37,1.59-1.14s1.37.91,1.14,1.59c-.23,1.37-2.28,12.53-3,15a4.65,4.65,0,0,0,.46,3.42c.91,1.37,3,2,5.69,2h0a1.47,1.47,0,0,1,1.37,1.37c.23.91-.46,1.36-1.37,1.36Z" transform="translate(-817.01 -903.87)"/><path class="cls-2" d="M1581.43,1006.4S1465,1020.07,1474.57,941C1479.13,902.73,1587.59,897.26,1581.43,1006.4Z" transform="translate(-817.01 -903.87)"/><path class="cls-7" d="M1472.75,1055.61l29.16.23c-3.87,12.76-12.3,13.67-18,13.22C1475.26,1068.37,1472.75,1055.61,1472.75,1055.61Z" transform="translate(-817.01 -903.87)"/><path class="cls-11" d="M1437.21,1115.54s-53.78,6.6-68.36,162l-72.91,43.06c22.33,13.67,31.9,31.9,20,57.64,0,0,83.62-33.72,96.15-55.13,12.53-21.65,37.14-105.73,37.14-105.73Z" transform="translate(-817.01 -903.87)"/><path class="cls-11" d="M1437.21,1115.54s13.21-2,39-10c-9.57,15.5-43.29,194.58-38.51,263.62l-34.18-6.38,14.13-179.31Z" transform="translate(-817.01 -903.87)"/><path class="cls-11" d="M1589.18,1106.42s-38.28,7.75-61.29,113.7c-16,73.37-12.76,160.86-12.76,160.86l121.44,18.45s34-166.32,31-217.82c0-.91-.23-1.82-.23-2.73-2.73-31.44-7.29-40.56-46.93-57.65Z" transform="translate(-817.01 -903.87)"/><path class="cls-12" d="M1515.59,1146.52a5,5,0,1,1-5-5A5.06,5.06,0,0,1,1515.59,1146.52Z" transform="translate(-817.01 -903.87)"/><path class="cls-12" d="M1510.57,1164.07a5,5,0,1,1-5-5A5.06,5.06,0,0,1,1510.57,1164.07Z" transform="translate(-817.01 -903.87)"/><polygon class="cls-13" points="0 555.49 4.56 776.05 689.92 776.5 690.15 688.1 0 555.49"/><path class="cls-14" d="M1506.93,1680.37l316.48-.46a25,25,0,0,0,25.06-25.06V1458l-341.31,134Z" transform="translate(-817.01 -903.87)"/><path class="cls-15" d="M1451.79,1369.13s-9.57,10.94-3,22.78c8.88,16.18,16.4,31.68,32.35,26.89,16.18-5-7.06-49.67-7.06-49.67Z" transform="translate(-817.01 -903.87)"/><path class="cls-3" d="M1421.71,1383.71l-50.12,7.75a9.28,9.28,0,0,0-4.33,1.82c-5.47,4.1-21.19,16.63-38,29.85-2,1.59-3.42,10.71,5,5.92,0,0-5.7,4.79-2.73,13,.45.91.68,2,1.13,3,2.06,5.7,8.21,8.66,13.22,6.16,15.27-7.52,45.11-21.88,51.27-21.42,18.91,1.59,35.08-10.26,38.05-12.31,0,0,9.79-10.48,5.24-22.1l-.23-.68C1436.75,1386.9,1429,1382.35,1421.71,1383.71Z" transform="translate(-817.01 -903.87)"/><line class="cls-16" x1="558.68" y1="496.71" x2="516.98" y2="525.19"/><line class="cls-16" x1="556.86" y1="510.6" x2="514.93" y2="539.09"/><line class="cls-16" x1="559.36" y1="522" x2="521.09" y2="544.78"/><path class="cls-3" d="M1582.34,1367.31c-33.26,33-154.7,52.63-154.7,52.63L1406,1391.69l130.33-49Z" transform="translate(-817.01 -903.87)"/><path class="cls-11" d="M1632.24,1131l-69.49,186.38-111,51.72s41.69,7.06,29.62,49.67c0,0,109.82-38.73,121.9-48.53s52-121.44,52-121.44,19.59-61.29,12.3-83.17A45.46,45.46,0,0,0,1632.24,1131Z" transform="translate(-817.01 -903.87)"/><polyline class="cls-17" points="775.59 311.92 775.59 321.95 746.2 411.26 634.78 465.26"/><polyline class="cls-17" points="589.21 424.71 597.41 311.47 591.49 293.92"/><path class="cls-7" d="M1319.87,1478l-190.71-30.76c-12.76-2-27.12-15.26-32.13-29.39l-46.48-134.2c-4.78-14.13,1.6-24.15,14.35-21.88l190.71,30.76c12.76,2,27.12,15.27,32.13,29.4l46.48,134.2C1339,1470.07,1332.62,1480.09,1319.87,1478Z" transform="translate(-817.01 -903.87)"/><path class="cls-18" d="M1310.3,1476.45l-190.48-30.76c-12.76-2-27.12-15.27-32.13-29.4l-46.48-134.2c-4.79-14.12,1.59-24.15,14.35-21.87L1246.27,1291c12.76,2,27.11,15.26,32.13,29.39l46.48,134.2C1329.66,1468.7,1323.28,1478.5,1310.3,1476.45Z" transform="translate(-817.01 -903.87)"/><path class="cls-19" d="M1191.13,1369.59c3.19,11.16-2.5,18.91-12.76,17.31s-21.19-12.07-24.38-23.24,2.51-18.91,12.76-17.31S1187.94,1358.42,1191.13,1369.59Z" transform="translate(-817.01 -903.87)"/><polygon class="cls-13" points="586.48 604.48 719.77 543.41 847.13 563.01 739.82 629.77 586.48 604.48"/><path class="cls-17" d="M1368.85,1277.76s8.66-1.14,10,2" transform="translate(-817.01 -903.87)"/><path class="cls-17" d="M1561.61,1316.5s8.66-1.14,10,2" transform="translate(-817.01 -903.87)"/><polygon class="cls-20" points="586.48 599.69 719.77 538.63 847.13 558 739.82 624.98 586.48 599.69"/><polygon class="cls-7" points="586.48 593.54 719.77 532.48 847.13 552.07 739.82 618.83 586.48 593.54"/><path class="cls-21" d="M1563.66,1088.88s32.13,2,27.34,26.66c-1.36,7.29-1.59,14.12-3.87,21.19-4.56,14.12-3.19,28.93-5.24,43.52" transform="translate(-817.01 -903.87)"/><path class="cls-21" d="M1586.67,1131c-12.07,11.62-25.74,17.09-28,36" transform="translate(-817.01 -903.87)"/><path class="cls-6" d="M1574.37,1185.49l-26.89,44.2c-6.15,9.34-10.48,14.12-22.32,7.29a52,52,0,0,0-2.51,5.24l1.82,1.14a18.46,18.46,0,0,0,25.29-6.15l32.13-52.86C1587.36,1175.46,1579.61,1177.06,1574.37,1185.49Z" transform="translate(-817.01 -903.87)"/><path class="cls-22" d="M1519.69,1233.56l6.6,3a3.84,3.84,0,0,1,1.83,5l-.46.91a3.83,3.83,0,0,1-5,1.82l-6.61-3a3.83,3.83,0,0,1-1.82-5l.45-.92A3.77,3.77,0,0,1,1519.69,1233.56Z" transform="translate(-817.01 -903.87)"/><path class="cls-6" d="M1558.88,1177.28l-5.7,51.27c-.91,11.16-.46,17.54,13.22,19.37-.46,1.82-.69,3.87-1.14,5.69l-2-.23a18.56,18.56,0,0,1-16.41-20.27l6.84-61.52C1554.78,1161.33,1560,1167.26,1558.88,1177.28Z" transform="translate(-817.01 -903.87)"/><path class="cls-22" d="M1573,1248.6l-7.06-1.6a3.93,3.93,0,0,0-4.56,2.74l-.23,1.14a3.91,3.91,0,0,0,2.74,4.55l7.06,1.6a3.91,3.91,0,0,0,4.56-2.73l.23-1.14A3.58,3.58,0,0,0,1573,1248.6Z" transform="translate(-817.01 -903.87)"/><path class="cls-22" d="M1578.7,1182.75l3.42,1.37a3.63,3.63,0,0,0,4.55-1.82l.69-1.83a3.63,3.63,0,0,0-1.83-4.55l-3.19-1.37a3.63,3.63,0,0,0-4.55,1.82l-.69,1.82A3.34,3.34,0,0,0,1578.7,1182.75Z" transform="translate(-817.01 -903.87)"/><path class="cls-22" d="M1554.55,1173.18l3.64.69a3.55,3.55,0,0,0,4.1-2.74l.46-2.05a3.55,3.55,0,0,0-2.73-4.1l-3.65-.68a3.54,3.54,0,0,0-4.1,2.73l-.46,2A3.75,3.75,0,0,0,1554.55,1173.18Z" transform="translate(-817.01 -903.87)"/><path class="cls-21" d="M1446.78,1206c0,3.19,5.92,3.65,5.69.46h0c-.45-21.42-3-42.84-1.82-64.26.68-14.12,3-31,20.51-35.77" transform="translate(-817.01 -903.87)"/><path class="cls-22" d="M1438.57,1209.87a15.36,15.36,0,1,0,19.14-10.26A15.14,15.14,0,0,0,1438.57,1209.87Z" transform="translate(-817.01 -903.87)"/><path class="cls-23" d="M1442,1207.59a11.75,11.75,0,1,0,14.58-8A11.85,11.85,0,0,0,1442,1207.59Z" transform="translate(-817.01 -903.87)"/><path class="cls-22" d="M1442.22,1202.8a11.75,11.75,0,1,0,14.58-8A11.84,11.84,0,0,0,1442.22,1202.8Z" transform="translate(-817.01 -903.87)"/><path class="cls-2" d="M1588.5,1476.9l-67.67,15.5a3.27,3.27,0,0,1-2,0l-5.7-.69c-.68,0-.91-1.14-.46-1.59l4.79-3.19a2.56,2.56,0,0,1,1.82-.69l67.67-15.49a3.31,3.31,0,0,1,3.88,2.28h0A2.89,2.89,0,0,1,1588.5,1476.9Z" transform="translate(-817.01 -903.87)"/><path class="cls-24" d="M1468.42,1037.39H1457a7.59,7.59,0,0,1-7.52-7.52V1028a7.59,7.59,0,0,1,7.52-7.52h11.39a7.25,7.25,0,0,1,6.15,3.19,7.91,7.91,0,0,1,1.6,4.56v1.82C1476.17,1033.74,1472.52,1037.39,1468.42,1037.39Z" transform="translate(-817.01 -903.87)"/><path class="cls-24" d="M1512.62,1037.39h-15.49a8.56,8.56,0,0,1-8.43-8.44v-.22a8.56,8.56,0,0,1,8.43-8.43h15.49a8.56,8.56,0,0,1,8.43,8.43v.22A8.56,8.56,0,0,1,1512.62,1037.39Z" transform="translate(-817.01 -903.87)"/><path class="cls-24" d="M1474.8,1022.58s6.84-7.07,16.18,0" transform="translate(-817.01 -903.87)"/><line class="cls-24" x1="736.63" y1="103.9" x2="701.77" y2="117.8"/><ellipse class="cls-25" cx="1163.99" cy="1366.64" rx="29.62" ry="43.52" transform="translate(-1397.86 40.72) rotate(-35.98)"/><path class="cls-26" d="M1170.63,1387.81h0c-3.19-.45-6.61-3.87-7.75-7.29l-10-29.85c-1.14-3.41.46-5.92,3.65-5.24h0c3.19.46,6.61,3.88,7.75,7.3l10,29.84C1175.41,1386,1173.82,1388.5,1170.63,1387.81Z" transform="translate(-817.01 -903.87)"/><path class="cls-26" d="M1144.42,1363.21h0c-1.14-3.42.46-5.93,3.65-5.24l26.66,4.78c3.19.46,6.6,3.87,7.74,7.29h0c1.14,3.42-.45,5.93-3.64,5.24l-26.66-4.78C1149.21,1370,1145.79,1366.62,1144.42,1363.21Z" transform="translate(-817.01 -903.87)"/><g class="cls-27"><path class="cls-7" d="M1662.55,909.79a5.93,5.93,0,1,1-5.93-5.92A6,6,0,0,1,1662.55,909.79Z" transform="translate(-817.01 -903.87)"/><path class="cls-7" d="M1723.84,909.79a5.93,5.93,0,1,1-5.93-5.92A6.19,6.19,0,0,1,1723.84,909.79Z" transform="translate(-817.01 -903.87)"/><path class="cls-7" d="M1784.9,909.79a5.93,5.93,0,1,1-5.92-5.92A6,6,0,0,1,1784.9,909.79Z" transform="translate(-817.01 -903.87)"/><path class="cls-7" d="M1662.55,954.9a5.93,5.93,0,1,1-5.93-5.92A5.89,5.89,0,0,1,1662.55,954.9Z" transform="translate(-817.01 -903.87)"/><path class="cls-7" d="M1723.84,954.9a5.93,5.93,0,1,1-5.93-5.92A6,6,0,0,1,1723.84,954.9Z" transform="translate(-817.01 -903.87)"/><path class="cls-7" d="M1784.9,954.9A5.93,5.93,0,1,1,1779,949,5.89,5.89,0,0,1,1784.9,954.9Z" transform="translate(-817.01 -903.87)"/><path class="cls-7" d="M1662.55,1000a5.93,5.93,0,0,1-11.85,0,5.75,5.75,0,0,1,5.92-5.93A5.89,5.89,0,0,1,1662.55,1000Z" transform="translate(-817.01 -903.87)"/><path class="cls-7" d="M1723.84,1000a5.93,5.93,0,0,1-11.85,0,5.75,5.75,0,0,1,5.92-5.93A6,6,0,0,1,1723.84,1000Z" transform="translate(-817.01 -903.87)"/><path class="cls-7" d="M1784.9,1000a5.93,5.93,0,0,1-11.85,0,5.75,5.75,0,0,1,5.93-5.93A5.89,5.89,0,0,1,1784.9,1000Z" transform="translate(-817.01 -903.87)"/></g><path class="cls-28" d="M1245.13,1149h82.48" transform="translate(-817.01 -903.87)"/></svg>